<?xml version="1.0" encoding="UTF-8" standalone="no"?>
<!DOCTYPE svg PUBLIC "-//W3C//DTD SVG 1.1//EN"
 "http://www.w3.org/Graphics/SVG/1.1/DTD/svg11.dtd">
<!-- Generated by graphviz version 2.40.1 (20161225.0304)
 -->
<!-- Title: dependencies Pages: 1 -->
<svg width="504pt" height="284pt"
 viewBox="0.00 0.00 504.00 284.00" xmlns="http://www.w3.org/2000/svg" xmlns:xlink="http://www.w3.org/1999/xlink">
<g id="graph0" class="graph" transform="scale(1 1) rotate(0) translate(4 280)">
<title>dependencies</title>
<polygon fill="#ffffff" stroke="transparent" points="-4,4 -4,-280 500,-280 500,4 -4,4"/>
<text text-anchor="start" x="227.0091" y="-42.4" font-family="sans-serif" font-weight="bold" font-size="14.00" fill="#000000">Legend</text>
<polygon fill="#ffffb3" stroke="transparent" points="14,-10 14,-30 34,-30 34,-10 14,-10"/>
<text text-anchor="start" x="37.629" y="-15.4" font-family="sans-serif" font-size="14.00" fill="#000000"> &#160;Declarations</text>
<polygon fill="#8dd3c7" stroke="transparent" points="127,-10 127,-30 147,-30 147,-10 127,-10"/>
<text text-anchor="start" x="150.7251" y="-15.4" font-family="sans-serif" font-size="14.00" fill="#000000"> &#160;Module</text>
<polygon fill="#80b1d3" stroke="transparent" points="213,-10 213,-30 233,-30 233,-10 213,-10"/>
<text text-anchor="start" x="236.7812" y="-15.4" font-family="sans-serif" font-size="14.00" fill="#000000"> &#160;Bootstrap</text>
<polygon fill="#fdb462" stroke="transparent" points="310,-10 310,-30 330,-30 330,-10 310,-10"/>
<text text-anchor="start" x="333.6732" y="-15.4" font-family="sans-serif" font-size="14.00" fill="#000000"> &#160;Providers</text>
<polygon fill="#fb8072" stroke="transparent" points="406,-10 406,-30 426,-30 426,-10 406,-10"/>
<text text-anchor="start" x="429.7258" y="-15.4" font-family="sans-serif" font-size="14.00" fill="#000000"> &#160;Exports</text>
<g id="clust1" class="cluster">
<title>cluster_ProductSearchModule</title>
<polygon fill="none" stroke="#000000" stroke-dasharray="1,5" points="80,-70 80,-268 416,-268 416,-70 80,-70"/>
</g>
<g id="clust2" class="cluster">
<title>cluster_ProductSearchModule_declarations</title>
<polygon fill="none" stroke="#000000" points="230,-78 230,-130 408,-130 408,-78 230,-78"/>
</g>
<g id="clust4" class="cluster">
<title>cluster_ProductSearchModule_imports</title>
<polygon fill="none" stroke="#000000" points="88,-78 88,-130 222,-130 222,-78 88,-78"/>
</g>
<g id="clust5" class="cluster">
<title>cluster_ProductSearchModule_exports</title>
<polygon fill="none" stroke="#000000" points="157,-208 157,-260 339,-260 339,-208 157,-208"/>
</g>
<!-- ProductSearchComponent -->
<g id="node1" class="node">
<title>ProductSearchComponent</title>
<polygon fill="#ffffb3" stroke="#000000" points="400.4678,-122 237.5322,-122 237.5322,-86 400.4678,-86 400.4678,-122"/>
<text text-anchor="middle" x="319" y="-99.8" font-family="Times,serif" font-size="14.00" fill="#000000">ProductSearchComponent</text>
</g>
<!-- ProductSearchModule -->
<g id="node2" class="node">
<title>ProductSearchModule</title>
<polygon fill="#8dd3c7" stroke="#000000" points="318.6853,-187 315.6853,-191 294.6853,-191 291.6853,-187 177.3147,-187 177.3147,-151 318.6853,-151 318.6853,-187"/>
<text text-anchor="middle" x="248" y="-164.8" font-family="Times,serif" font-size="14.00" fill="#000000">ProductSearchModule</text>
</g>
<!-- ProductSearchComponent&#45;&gt;ProductSearchModule -->
<g id="edge1" class="edge">
<title>ProductSearchComponent&#45;&gt;ProductSearchModule</title>
<path fill="none" stroke="#000000" d="M278.0544,-122.1061C278.0544,-122.1061 278.0544,-140.991 278.0544,-140.991"/>
<polygon fill="#000000" stroke="#000000" points="274.5544,-140.9909 278.0544,-150.991 281.5544,-140.991 274.5544,-140.9909"/>
</g>
<!-- ProductSearchComponent  -->
<g id="node4" class="node">
<title>ProductSearchComponent </title>
<polygon fill="#fb8072" stroke="#000000" points="331.4685,-252 164.5315,-252 164.5315,-216 331.4685,-216 331.4685,-252"/>
<text text-anchor="middle" x="248" y="-229.8" font-family="Times,serif" font-size="14.00" fill="#000000">ProductSearchComponent </text>
</g>
<!-- ProductSearchModule&#45;&gt;ProductSearchComponent  -->
<g id="edge3" class="edge">
<title>ProductSearchModule&#45;&gt;ProductSearchComponent </title>
<path fill="none" stroke="#000000" stroke-dasharray="5,2" d="M248,-187.1061C248,-187.1061 248,-205.991 248,-205.991"/>
<polygon fill="#000000" stroke="#000000" points="244.5001,-205.9909 248,-215.991 251.5001,-205.991 244.5001,-205.9909"/>
</g>
<!-- DirectivesModule -->
<g id="node3" class="node">
<title>DirectivesModule</title>
<polygon fill="#8dd3c7" stroke="#000000" points="213.5772,-122 210.5772,-126 189.5772,-126 186.5772,-122 96.4228,-122 96.4228,-86 213.5772,-86 213.5772,-122"/>
<text text-anchor="middle" x="155" y="-99.8" font-family="Times,serif" font-size="14.00" fill="#000000">DirectivesModule</text>
</g>
<!-- DirectivesModule&#45;&gt;ProductSearchModule -->
<g id="edge2" class="edge">
<title>DirectivesModule&#45;&gt;ProductSearchModule</title>
<path fill="none" stroke="#000000" d="M195.473,-122.1061C195.473,-122.1061 195.473,-140.991 195.473,-140.991"/>
<polygon fill="#000000" stroke="#000000" points="191.9731,-140.9909 195.473,-150.991 198.9731,-140.991 191.9731,-140.9909"/>
</g>
</g>
</svg>
