<?xml version="1.0" encoding="UTF-8" standalone="no"?>
<!DOCTYPE svg PUBLIC "-//W3C//DTD SVG 1.1//EN"
 "http://www.w3.org/Graphics/SVG/1.1/DTD/svg11.dtd">
<!-- Generated by graphviz version 2.40.1 (20161225.0304)
 -->
<!-- Title: dependencies Pages: 1 -->
<svg width="1741pt" height="284pt"
 viewBox="0.00 0.00 1741.00 284.00" xmlns="http://www.w3.org/2000/svg" xmlns:xlink="http://www.w3.org/1999/xlink">
<g id="graph0" class="graph" transform="scale(1 1) rotate(0) translate(4 280)">
<title>dependencies</title>
<polygon fill="#ffffff" stroke="transparent" points="-4,4 -4,-280 1737,-280 1737,4 -4,4"/>
<text text-anchor="start" x="845.5091" y="-42.4" font-family="sans-serif" font-weight="bold" font-size="14.00" fill="#000000">Legend</text>
<polygon fill="#ffffb3" stroke="transparent" points="632.5,-10 632.5,-30 652.5,-30 652.5,-10 632.5,-10"/>
<text text-anchor="start" x="656.129" y="-15.4" font-family="sans-serif" font-size="14.00" fill="#000000"> &#160;Declarations</text>
<polygon fill="#8dd3c7" stroke="transparent" points="745.5,-10 745.5,-30 765.5,-30 765.5,-10 745.5,-10"/>
<text text-anchor="start" x="769.2251" y="-15.4" font-family="sans-serif" font-size="14.00" fill="#000000"> &#160;Module</text>
<polygon fill="#80b1d3" stroke="transparent" points="831.5,-10 831.5,-30 851.5,-30 851.5,-10 831.5,-10"/>
<text text-anchor="start" x="855.2812" y="-15.4" font-family="sans-serif" font-size="14.00" fill="#000000"> &#160;Bootstrap</text>
<polygon fill="#fdb462" stroke="transparent" points="928.5,-10 928.5,-30 948.5,-30 948.5,-10 928.5,-10"/>
<text text-anchor="start" x="952.1732" y="-15.4" font-family="sans-serif" font-size="14.00" fill="#000000"> &#160;Providers</text>
<polygon fill="#fb8072" stroke="transparent" points="1024.5,-10 1024.5,-30 1044.5,-30 1044.5,-10 1024.5,-10"/>
<text text-anchor="start" x="1048.2258" y="-15.4" font-family="sans-serif" font-size="14.00" fill="#000000"> &#160;Exports</text>
<g id="clust1" class="cluster">
<title>cluster_PricingModule</title>
<polygon fill="none" stroke="#000000" stroke-dasharray="1,5" points="8,-70 8,-268 1725,-268 1725,-70 8,-70"/>
</g>
<g id="clust2" class="cluster">
<title>cluster_PricingModule_declarations</title>
<polygon fill="none" stroke="#000000" points="40,-78 40,-130 1702,-130 1702,-78 40,-78"/>
</g>
<g id="clust16" class="cluster">
<title>cluster_PricingModule_exports</title>
<polygon fill="none" stroke="#000000" points="16,-208 16,-260 1717,-260 1717,-208 16,-208"/>
</g>
<!-- AttributeValuePricePipe -->
<g id="node1" class="node">
<title>AttributeValuePricePipe</title>
<polygon fill="#ffffb3" stroke="#000000" points="1693.6219,-122 1540.3781,-122 1540.3781,-86 1693.6219,-86 1693.6219,-122"/>
<text text-anchor="middle" x="1617" y="-99.8" font-family="Times,serif" font-size="14.00" fill="#000000">AttributeValuePricePipe</text>
</g>
<!-- PricingModule -->
<g id="node13" class="node">
<title>PricingModule</title>
<polygon fill="#8dd3c7" stroke="#000000" points="837.9888,-187 834.9888,-191 813.9888,-191 810.9888,-187 738.0112,-187 738.0112,-151 837.9888,-151 837.9888,-187"/>
<text text-anchor="middle" x="788" y="-164.8" font-family="Times,serif" font-size="14.00" fill="#000000">PricingModule</text>
</g>
<!-- AttributeValuePricePipe&#45;&gt;PricingModule -->
<g id="edge1" class="edge">
<title>AttributeValuePricePipe&#45;&gt;PricingModule</title>
<path fill="none" stroke="#000000" d="M1545.8143,-122.1061C1545.8143,-141.3391 1545.8143,-169 1545.8143,-169 1545.8143,-169 848.0154,-169 848.0154,-169"/>
<polygon fill="#000000" stroke="#000000" points="848.0154,-165.5001 838.0154,-169 848.0153,-172.5001 848.0154,-165.5001"/>
</g>
<!-- CartItemPricePipe -->
<g id="node2" class="node">
<title>CartItemPricePipe</title>
<polygon fill="#ffffb3" stroke="#000000" points="1521.9103,-122 1402.0897,-122 1402.0897,-86 1521.9103,-86 1521.9103,-122"/>
<text text-anchor="middle" x="1462" y="-99.8" font-family="Times,serif" font-size="14.00" fill="#000000">CartItemPricePipe</text>
</g>
<!-- CartItemPricePipe&#45;&gt;PricingModule -->
<g id="edge2" class="edge">
<title>CartItemPricePipe&#45;&gt;PricingModule</title>
<path fill="none" stroke="#000000" d="M1406.4202,-122.2667C1406.4202,-140.5552 1406.4202,-166 1406.4202,-166 1406.4202,-166 848.0841,-166 848.0841,-166"/>
<polygon fill="#000000" stroke="#000000" points="848.0841,-162.5001 838.0841,-166 848.084,-169.5001 848.0841,-162.5001"/>
</g>
<!-- CartPricePipe -->
<g id="node3" class="node">
<title>CartPricePipe</title>
<polygon fill="#ffffb3" stroke="#000000" points="1383.7535,-122 1290.2465,-122 1290.2465,-86 1383.7535,-86 1383.7535,-122"/>
<text text-anchor="middle" x="1337" y="-99.8" font-family="Times,serif" font-size="14.00" fill="#000000">CartPricePipe</text>
</g>
<!-- CartPricePipe&#45;&gt;PricingModule -->
<g id="edge3" class="edge">
<title>CartPricePipe&#45;&gt;PricingModule</title>
<path fill="none" stroke="#000000" d="M1354.3755,-122.0225C1354.3755,-139.3734 1354.3755,-163 1354.3755,-163 1354.3755,-163 848.2621,-163 848.2621,-163"/>
<polygon fill="#000000" stroke="#000000" points="848.2621,-159.5001 838.2621,-163 848.262,-166.5001 848.2621,-159.5001"/>
</g>
<!-- ConvertCurrencyPipe -->
<g id="node4" class="node">
<title>ConvertCurrencyPipe</title>
<polygon fill="#ffffb3" stroke="#000000" points="1272.0772,-122 1133.9228,-122 1133.9228,-86 1272.0772,-86 1272.0772,-122"/>
<text text-anchor="middle" x="1203" y="-99.8" font-family="Times,serif" font-size="14.00" fill="#000000">ConvertCurrencyPipe</text>
</g>
<!-- ConvertCurrencyPipe&#45;&gt;PricingModule -->
<g id="edge4" class="edge">
<title>ConvertCurrencyPipe&#45;&gt;PricingModule</title>
<path fill="none" stroke="#000000" d="M1226.7629,-122.027C1226.7629,-138.3976 1226.7629,-160 1226.7629,-160 1226.7629,-160 848.3317,-160 848.3317,-160"/>
<polygon fill="#000000" stroke="#000000" points="848.3317,-156.5001 838.3317,-160 848.3316,-163.5001 848.3317,-156.5001"/>
</g>
<!-- LineItemPricePipe -->
<g id="node5" class="node">
<title>LineItemPricePipe</title>
<polygon fill="#ffffb3" stroke="#000000" points="1115.465,-122 994.535,-122 994.535,-86 1115.465,-86 1115.465,-122"/>
<text text-anchor="middle" x="1055" y="-99.8" font-family="Times,serif" font-size="14.00" fill="#000000">LineItemPricePipe</text>
</g>
<!-- LineItemPricePipe&#45;&gt;PricingModule -->
<g id="edge5" class="edge">
<title>LineItemPricePipe&#45;&gt;PricingModule</title>
<path fill="none" stroke="#000000" d="M1075.1608,-122.2396C1075.1608,-137.5706 1075.1608,-157 1075.1608,-157 1075.1608,-157 848.0196,-157 848.0196,-157"/>
<polygon fill="#000000" stroke="#000000" points="848.0196,-153.5001 838.0196,-157 848.0196,-160.5001 848.0196,-153.5001"/>
</g>
<!-- LocalCurrencyPipe -->
<g id="node6" class="node">
<title>LocalCurrencyPipe</title>
<polygon fill="#ffffb3" stroke="#000000" points="976.3473,-122 851.6527,-122 851.6527,-86 976.3473,-86 976.3473,-122"/>
<text text-anchor="middle" x="914" y="-99.8" font-family="Times,serif" font-size="14.00" fill="#000000">LocalCurrencyPipe</text>
</g>
<!-- LocalCurrencyPipe&#45;&gt;PricingModule -->
<g id="edge6" class="edge">
<title>LocalCurrencyPipe&#45;&gt;PricingModule</title>
<path fill="none" stroke="#000000" d="M913.875,-122.0511C913.875,-136.373 913.875,-154 913.875,-154 913.875,-154 848.1108,-154 848.1108,-154"/>
<polygon fill="#000000" stroke="#000000" points="848.1109,-150.5001 838.1108,-154 848.1108,-157.5001 848.1109,-150.5001"/>
</g>
<!-- OptionPricePipe -->
<g id="node7" class="node">
<title>OptionPricePipe</title>
<polygon fill="#ffffb3" stroke="#000000" points="833.0396,-122 724.9604,-122 724.9604,-86 833.0396,-86 833.0396,-122"/>
<text text-anchor="middle" x="779" y="-99.8" font-family="Times,serif" font-size="14.00" fill="#000000">OptionPricePipe</text>
</g>
<!-- OptionPricePipe&#45;&gt;PricingModule -->
<g id="edge7" class="edge">
<title>OptionPricePipe&#45;&gt;PricingModule</title>
<path fill="none" stroke="#000000" d="M785.6374,-122.1061C785.6374,-122.1061 785.6374,-140.991 785.6374,-140.991"/>
<polygon fill="#000000" stroke="#000000" points="782.1375,-140.9909 785.6374,-150.991 789.1375,-140.991 782.1375,-140.9909"/>
</g>
<!-- OrderLineItemPricePipe -->
<g id="node8" class="node">
<title>OrderLineItemPricePipe</title>
<polygon fill="#ffffb3" stroke="#000000" points="706.6079,-122 553.3921,-122 553.3921,-86 706.6079,-86 706.6079,-122"/>
<text text-anchor="middle" x="630" y="-99.8" font-family="Times,serif" font-size="14.00" fill="#000000">OrderLineItemPricePipe</text>
</g>
<!-- OrderLineItemPricePipe&#45;&gt;PricingModule -->
<g id="edge8" class="edge">
<title>OrderLineItemPricePipe&#45;&gt;PricingModule</title>
<path fill="none" stroke="#000000" d="M703.1787,-122.1243C703.1787,-136.7832 703.1787,-155 703.1787,-155 703.1787,-155 727.6788,-155 727.6788,-155"/>
<polygon fill="#000000" stroke="#000000" points="727.6788,-158.5001 737.6788,-155 727.6787,-151.5001 727.6788,-158.5001"/>
</g>
<!-- OrderPricePipe -->
<g id="node9" class="node">
<title>OrderPricePipe</title>
<polygon fill="#ffffb3" stroke="#000000" points="535.2936,-122 432.7064,-122 432.7064,-86 535.2936,-86 535.2936,-122"/>
<text text-anchor="middle" x="484" y="-99.8" font-family="Times,serif" font-size="14.00" fill="#000000">OrderPricePipe</text>
</g>
<!-- OrderPricePipe&#45;&gt;PricingModule -->
<g id="edge9" class="edge">
<title>OrderPricePipe&#45;&gt;PricingModule</title>
<path fill="none" stroke="#000000" d="M530.0216,-122.2819C530.0216,-137.9478 530.0216,-158 530.0216,-158 530.0216,-158 727.9533,-158 727.9533,-158"/>
<polygon fill="#000000" stroke="#000000" points="727.9533,-161.5001 737.9533,-158 727.9532,-154.5001 727.9533,-161.5001"/>
</g>
<!-- PriceMatrixFilter -->
<g id="node10" class="node">
<title>PriceMatrixFilter</title>
<polygon fill="#ffffb3" stroke="#000000" points="414.6938,-122 301.3062,-122 301.3062,-86 414.6938,-86 414.6938,-122"/>
<text text-anchor="middle" x="358" y="-99.8" font-family="Times,serif" font-size="14.00" fill="#000000">PriceMatrixFilter</text>
</g>
<!-- PriceMatrixFilter&#45;&gt;PricingModule -->
<g id="edge10" class="edge">
<title>PriceMatrixFilter&#45;&gt;PricingModule</title>
<path fill="none" stroke="#000000" d="M407.9718,-122.0352C407.9718,-138.7344 407.9718,-161 407.9718,-161 407.9718,-161 727.9272,-161 727.9272,-161"/>
<polygon fill="#000000" stroke="#000000" points="727.9272,-164.5001 737.9272,-161 727.9271,-157.5001 727.9272,-164.5001"/>
</g>
<!-- ProductPricePipe -->
<g id="node11" class="node">
<title>ProductPricePipe</title>
<polygon fill="#ffffb3" stroke="#000000" points="283.6994,-122 170.3006,-122 170.3006,-86 283.6994,-86 283.6994,-122"/>
<text text-anchor="middle" x="227" y="-99.8" font-family="Times,serif" font-size="14.00" fill="#000000">ProductPricePipe</text>
</g>
<!-- ProductPricePipe&#45;&gt;PricingModule -->
<g id="edge11" class="edge">
<title>ProductPricePipe&#45;&gt;PricingModule</title>
<path fill="none" stroke="#000000" d="M274.9746,-122.302C274.9746,-140.2699 274.9746,-165 274.9746,-165 274.9746,-165 727.8749,-165 727.8749,-165"/>
<polygon fill="#000000" stroke="#000000" points="727.8749,-168.5001 737.8749,-165 727.8748,-161.5001 727.8749,-168.5001"/>
</g>
<!-- QuotePricePipe -->
<g id="node12" class="node">
<title>QuotePricePipe</title>
<polygon fill="#ffffb3" stroke="#000000" points="151.8627,-122 48.1373,-122 48.1373,-86 151.8627,-86 151.8627,-122"/>
<text text-anchor="middle" x="100" y="-99.8" font-family="Times,serif" font-size="14.00" fill="#000000">QuotePricePipe</text>
</g>
<!-- QuotePricePipe&#45;&gt;PricingModule -->
<g id="edge12" class="edge">
<title>QuotePricePipe&#45;&gt;PricingModule</title>
<path fill="none" stroke="#000000" d="M140.6659,-122.1686C140.6659,-141.0898 140.6659,-168 140.6658,-168 140.6658,-168 727.7434,-168 727.7434,-168"/>
<polygon fill="#000000" stroke="#000000" points="727.7435,-171.5001 737.7434,-168 727.7434,-164.5001 727.7435,-171.5001"/>
</g>
<!-- AttributeValuePricePipe  -->
<g id="node14" class="node">
<title>AttributeValuePricePipe </title>
<polygon fill="#fb8072" stroke="#000000" points="1708.6214,-252 1551.3786,-252 1551.3786,-216 1708.6214,-216 1708.6214,-252"/>
<text text-anchor="middle" x="1630" y="-229.8" font-family="Times,serif" font-size="14.00" fill="#000000">AttributeValuePricePipe </text>
</g>
<!-- PricingModule&#45;&gt;AttributeValuePricePipe  -->
<g id="edge13" class="edge">
<title>PricingModule&#45;&gt;AttributeValuePricePipe </title>
<path fill="none" stroke="#000000" stroke-dasharray="5,2" d="M838.0196,-172C1018.0833,-172 1622.625,-172 1622.625,-172 1622.625,-172 1622.625,-205.7333 1622.625,-205.7333"/>
<polygon fill="#000000" stroke="#000000" points="1619.1251,-205.7333 1622.625,-215.7333 1626.1251,-205.7333 1619.1251,-205.7333"/>
</g>
<!-- CartItemPricePipe  -->
<g id="node15" class="node">
<title>CartItemPricePipe </title>
<polygon fill="#fb8072" stroke="#000000" points="1533.4096,-252 1410.5904,-252 1410.5904,-216 1533.4096,-216 1533.4096,-252"/>
<text text-anchor="middle" x="1472" y="-229.8" font-family="Times,serif" font-size="14.00" fill="#000000">CartItemPricePipe </text>
</g>
<!-- PricingModule&#45;&gt;CartItemPricePipe  -->
<g id="edge14" class="edge">
<title>PricingModule&#45;&gt;CartItemPricePipe </title>
<path fill="none" stroke="#000000" stroke-dasharray="5,2" d="M838.1395,-175C995.0209,-175 1466.125,-175 1466.125,-175 1466.125,-175 1466.125,-205.9775 1466.125,-205.9775"/>
<polygon fill="#000000" stroke="#000000" points="1462.6251,-205.9774 1466.125,-215.9775 1469.6251,-205.9775 1462.6251,-205.9774"/>
</g>
<!-- CartPricePipe  -->
<g id="node16" class="node">
<title>CartPricePipe </title>
<polygon fill="#fb8072" stroke="#000000" points="1392.7535,-252 1295.2465,-252 1295.2465,-216 1392.7535,-216 1392.7535,-252"/>
<text text-anchor="middle" x="1344" y="-229.8" font-family="Times,serif" font-size="14.00" fill="#000000">CartPricePipe </text>
</g>
<!-- PricingModule&#45;&gt;CartPricePipe  -->
<g id="edge15" class="edge">
<title>PricingModule&#45;&gt;CartPricePipe </title>
<path fill="none" stroke="#000000" stroke-dasharray="5,2" d="M838.0257,-178C971.3049,-178 1324.8745,-178 1324.8745,-178 1324.8745,-178 1324.8745,-205.973 1324.8745,-205.973"/>
<polygon fill="#000000" stroke="#000000" points="1321.3746,-205.973 1324.8745,-215.973 1328.3746,-205.973 1321.3746,-205.973"/>
</g>
<!-- ConvertCurrencyPipe  -->
<g id="node17" class="node">
<title>ConvertCurrencyPipe </title>
<polygon fill="#fb8072" stroke="#000000" points="1277.5778,-252 1136.4222,-252 1136.4222,-216 1277.5778,-216 1277.5778,-252"/>
<text text-anchor="middle" x="1207" y="-229.8" font-family="Times,serif" font-size="14.00" fill="#000000">ConvertCurrencyPipe </text>
</g>
<!-- PricingModule&#45;&gt;ConvertCurrencyPipe  -->
<g id="edge16" class="edge">
<title>PricingModule&#45;&gt;ConvertCurrencyPipe </title>
<path fill="none" stroke="#000000" stroke-dasharray="5,2" d="M838.2351,-181C944.3143,-181 1181.4871,-181 1181.4871,-181 1181.4871,-181 1181.4871,-205.7604 1181.4871,-205.7604"/>
<polygon fill="#000000" stroke="#000000" points="1177.9872,-205.7604 1181.4871,-215.7604 1184.9872,-205.7604 1177.9872,-205.7604"/>
</g>
<!-- LineItemPricePipe  -->
<g id="node18" class="node">
<title>LineItemPricePipe </title>
<polygon fill="#fb8072" stroke="#000000" points="1118.4659,-252 993.5341,-252 993.5341,-216 1118.4659,-216 1118.4659,-252"/>
<text text-anchor="middle" x="1056" y="-229.8" font-family="Times,serif" font-size="14.00" fill="#000000">LineItemPricePipe </text>
</g>
<!-- PricingModule&#45;&gt;LineItemPricePipe  -->
<g id="edge17" class="edge">
<title>PricingModule&#45;&gt;LineItemPricePipe </title>
<path fill="none" stroke="#000000" stroke-dasharray="5,2" d="M838.2491,-184C910.4212,-184 1034.8392,-184 1034.8392,-184 1034.8392,-184 1034.8392,-205.9489 1034.8392,-205.9489"/>
<polygon fill="#000000" stroke="#000000" points="1031.3393,-205.9488 1034.8392,-215.9489 1038.3393,-205.9489 1031.3393,-205.9488"/>
</g>
<!-- LocalCurrencyPipe  -->
<g id="node19" class="node">
<title>LocalCurrencyPipe </title>
<polygon fill="#fb8072" stroke="#000000" points="976.3477,-252 847.6523,-252 847.6523,-216 976.3477,-216 976.3477,-252"/>
<text text-anchor="middle" x="912" y="-229.8" font-family="Times,serif" font-size="14.00" fill="#000000">LocalCurrencyPipe </text>
</g>
<!-- PricingModule&#45;&gt;LocalCurrencyPipe  -->
<g id="edge18" class="edge">
<title>PricingModule&#45;&gt;LocalCurrencyPipe </title>
<path fill="none" stroke="#000000" stroke-dasharray="5,2" d="M834.0069,-187.1061C834.0069,-206.3391 834.0069,-234 834.0069,-234 834.0069,-234 837.5922,-234 837.5922,-234"/>
<polygon fill="#000000" stroke="#000000" points="837.5923,-237.5001 847.5922,-234 837.5922,-230.5001 837.5923,-237.5001"/>
</g>
<!-- OptionPricePipe  -->
<g id="node20" class="node">
<title>OptionPricePipe </title>
<polygon fill="#fb8072" stroke="#000000" points="830.0386,-252 717.9614,-252 717.9614,-216 830.0386,-216 830.0386,-252"/>
<text text-anchor="middle" x="774" y="-229.8" font-family="Times,serif" font-size="14.00" fill="#000000">OptionPricePipe </text>
</g>
<!-- PricingModule&#45;&gt;OptionPricePipe  -->
<g id="edge19" class="edge">
<title>PricingModule&#45;&gt;OptionPricePipe </title>
<path fill="none" stroke="#000000" stroke-dasharray="5,2" d="M784.0124,-187.1061C784.0124,-187.1061 784.0124,-205.991 784.0124,-205.991"/>
<polygon fill="#000000" stroke="#000000" points="780.5125,-205.9909 784.0124,-215.991 787.5125,-205.991 780.5125,-205.9909"/>
</g>
<!-- OrderLineItemPricePipe  -->
<g id="node21" class="node">
<title>OrderLineItemPricePipe </title>
<polygon fill="#fb8072" stroke="#000000" points="699.6074,-252 542.3926,-252 542.3926,-216 699.6074,-216 699.6074,-252"/>
<text text-anchor="middle" x="621" y="-229.8" font-family="Times,serif" font-size="14.00" fill="#000000">OrderLineItemPricePipe </text>
</g>
<!-- PricingModule&#45;&gt;OrderLineItemPricePipe  -->
<g id="edge20" class="edge">
<title>PricingModule&#45;&gt;OrderLineItemPricePipe </title>
<path fill="none" stroke="#000000" stroke-dasharray="5,2" d="M737.7468,-184C690.3014,-184 626.375,-184 626.375,-184 626.375,-184 626.375,-205.9489 626.375,-205.9489"/>
<polygon fill="#000000" stroke="#000000" points="622.8751,-205.9488 626.375,-215.9489 629.8751,-205.9489 622.8751,-205.9488"/>
</g>
<!-- OrderPricePipe  -->
<g id="node22" class="node">
<title>OrderPricePipe </title>
<polygon fill="#fb8072" stroke="#000000" points="524.7934,-252 419.2066,-252 419.2066,-216 524.7934,-216 524.7934,-252"/>
<text text-anchor="middle" x="472" y="-229.8" font-family="Times,serif" font-size="14.00" fill="#000000">OrderPricePipe </text>
</g>
<!-- PricingModule&#45;&gt;OrderPricePipe  -->
<g id="edge21" class="edge">
<title>PricingModule&#45;&gt;OrderPricePipe </title>
<path fill="none" stroke="#000000" stroke-dasharray="5,2" d="M737.9902,-181C650.5011,-181 478.875,-181 478.875,-181 478.875,-181 478.875,-205.7604 478.875,-205.7604"/>
<polygon fill="#000000" stroke="#000000" points="475.3751,-205.7604 478.875,-215.7604 482.3751,-205.7604 475.3751,-205.7604"/>
</g>
<!-- PriceMatrixFilter  -->
<g id="node23" class="node">
<title>PriceMatrixFilter </title>
<polygon fill="#fb8072" stroke="#000000" points="401.194,-252 284.806,-252 284.806,-216 401.194,-216 401.194,-252"/>
<text text-anchor="middle" x="343" y="-229.8" font-family="Times,serif" font-size="14.00" fill="#000000">PriceMatrixFilter </text>
</g>
<!-- PricingModule&#45;&gt;PriceMatrixFilter  -->
<g id="edge22" class="edge">
<title>PricingModule&#45;&gt;PriceMatrixFilter </title>
<path fill="none" stroke="#000000" stroke-dasharray="5,2" d="M737.9136,-178C623.2263,-178 351.375,-178 351.375,-178 351.375,-178 351.375,-205.973 351.375,-205.973"/>
<polygon fill="#000000" stroke="#000000" points="347.8751,-205.973 351.375,-215.973 354.8751,-205.973 347.8751,-205.973"/>
</g>
<!-- ProductPricePipe  -->
<g id="node24" class="node">
<title>ProductPricePipe </title>
<polygon fill="#fb8072" stroke="#000000" points="266.1996,-252 149.8004,-252 149.8004,-216 266.1996,-216 266.1996,-252"/>
<text text-anchor="middle" x="208" y="-229.8" font-family="Times,serif" font-size="14.00" fill="#000000">ProductPricePipe </text>
</g>
<!-- PricingModule&#45;&gt;ProductPricePipe  -->
<g id="edge23" class="edge">
<title>PricingModule&#45;&gt;ProductPricePipe </title>
<path fill="none" stroke="#000000" stroke-dasharray="5,2" d="M737.9488,-174C598.9498,-174 218.375,-174 218.375,-174 218.375,-174 218.375,-205.998 218.375,-205.998"/>
<polygon fill="#000000" stroke="#000000" points="214.8751,-205.998 218.375,-215.998 221.8751,-205.9981 214.8751,-205.998"/>
</g>
<!-- QuotePricePipe  -->
<g id="node25" class="node">
<title>QuotePricePipe </title>
<polygon fill="#fb8072" stroke="#000000" points="131.8632,-252 24.1368,-252 24.1368,-216 131.8632,-216 131.8632,-252"/>
<text text-anchor="middle" x="78" y="-229.8" font-family="Times,serif" font-size="14.00" fill="#000000">QuotePricePipe </text>
</g>
<!-- PricingModule&#45;&gt;QuotePricePipe  -->
<g id="edge24" class="edge">
<title>PricingModule&#45;&gt;QuotePricePipe </title>
<path fill="none" stroke="#000000" stroke-dasharray="5,2" d="M737.7926,-171C577.7188,-171 89.875,-171 89.875,-171 89.875,-171 89.875,-205.7778 89.875,-205.7778"/>
<polygon fill="#000000" stroke="#000000" points="86.3751,-205.7778 89.875,-215.7778 93.3751,-205.7778 86.3751,-205.7778"/>
</g>
</g>
</svg>
